<svg id="visual" viewBox="0 0 900 450" width="900" height="450" xmlns="http://www.w3.org/2000/svg" xmlns:xlink="http://www.w3.org/1999/xlink" version="1.1"><rect x="0" y="0" width="900" height="450" fill="#141414"></rect><defs><linearGradient id="grad1_0" x1="50%" y1="0%" x2="100%" y2="100%"><stop offset="10%" stop-color="#7100c7" stop-opacity="1"></stop><stop offset="90%" stop-color="#7100c7" stop-opacity="1"></stop></linearGradient></defs><defs><linearGradient id="grad1_1" x1="50%" y1="0%" x2="100%" y2="100%"><stop offset="10%" stop-color="#7100c7" stop-opacity="1"></stop><stop offset="90%" stop-color="#531886" stop-opacity="1"></stop></linearGradient></defs><defs><linearGradient id="grad1_2" x1="50%" y1="0%" x2="100%" y2="100%"><stop offset="10%" stop-color="#341a4a" stop-opacity="1"></stop><stop offset="90%" stop-color="#531886" stop-opacity="1"></stop></linearGradient></defs><defs><linearGradient id="grad1_3" x1="50%" y1="0%" x2="100%" y2="100%"><stop offset="10%" stop-color="#341a4a" stop-opacity="1"></stop><stop offset="90%" stop-color="#141414" stop-opacity="1"></stop></linearGradient></defs><defs><linearGradient id="grad2_0" x1="0%" y1="0%" x2="50%" y2="100%"><stop offset="10%" stop-color="#7100c7" stop-opacity="1"></stop><stop offset="90%" stop-color="#7100c7" stop-opacity="1"></stop></linearGradient></defs><defs><linearGradient id="grad2_1" x1="0%" y1="0%" x2="50%" y2="100%"><stop offset="10%" stop-color="#531886" stop-opacity="1"></stop><stop offset="90%" stop-color="#7100c7" stop-opacity="1"></stop></linearGradient></defs><defs><linearGradient id="grad2_2" x1="0%" y1="0%" x2="50%" y2="100%"><stop offset="10%" stop-color="#531886" stop-opacity="1"></stop><stop offset="90%" stop-color="#341a4a" stop-opacity="1"></stop></linearGradient></defs><defs><linearGradient id="grad2_3" x1="0%" y1="0%" x2="50%" y2="100%"><stop offset="10%" stop-color="#141414" stop-opacity="1"></stop><stop offset="90%" stop-color="#341a4a" stop-opacity="1"></stop></linearGradient></defs><g transform="translate(900, 0)"><path d="M0 337.5C-41.7 343 -83.4 348.5 -104.3 321C-125.2 293.4 -125.4 232.8 -153.4 211.2C-181.4 189.5 -237.3 206.7 -266.2 193.4C-295 180.1 -296.9 136.2 -304.3 98.9C-311.7 61.6 -324.6 30.8 -337.5 0L0 0Z" fill="#25182e"></path><path d="M0 253.1C-31.3 257.3 -62.5 261.4 -78.2 240.7C-93.9 220.1 -94 174.6 -115.1 158.4C-136.1 142.1 -178 155 -199.6 145C-221.3 135 -222.7 102.2 -228.3 74.2C-233.8 46.2 -243.5 23.1 -253.1 0L0 0Z" fill="#431a67"></path><path d="M0 168.8C-20.8 171.5 -41.7 174.3 -52.1 160.5C-62.6 146.7 -62.7 116.4 -76.7 105.6C-90.7 94.7 -118.6 103.3 -133.1 96.7C-147.5 90 -148.5 68.1 -152.2 49.4C-155.9 30.8 -162.3 15.4 -168.7 0L0 0Z" fill="#6211a6"></path><path d="M0 84.4C-10.4 85.8 -20.8 87.1 -26.1 80.2C-31.3 73.4 -31.3 58.2 -38.4 52.8C-45.4 47.4 -59.3 51.7 -66.5 48.3C-73.8 45 -74.2 34.1 -76.1 24.7C-77.9 15.4 -81.2 7.7 -84.4 0L0 0Z" fill="#7100c7"></path></g><g transform="translate(0, 450)"><path d="M0 -337.5C35 -332.1 70 -326.6 102.9 -316.7C135.8 -306.8 166.7 -292.4 198.4 -273C230 -253.7 262.4 -229.4 270.2 -196.3C278 -163.2 261.1 -121.3 268.2 -87.1C275.3 -53 306.4 -26.5 337.5 0L0 0Z" fill="#25182e"></path><path d="M0 -253.1C26.2 -249 52.5 -245 77.2 -237.5C101.9 -230.1 125 -219.3 148.8 -204.8C172.5 -190.3 196.8 -172.1 202.7 -147.2C208.5 -122.4 195.8 -91 201.1 -65.4C206.5 -39.7 229.8 -19.9 253.1 0L0 0Z" fill="#431a67"></path><path d="M0 -168.7C17.5 -166 35 -163.3 51.5 -158.4C67.9 -153.4 83.4 -146.2 99.2 -136.5C115 -126.9 131.2 -114.7 135.1 -98.2C139 -81.6 130.5 -60.7 134.1 -43.6C137.7 -26.5 153.2 -13.2 168.8 0L0 0Z" fill="#6211a6"></path><path d="M0 -84.4C8.7 -83 17.5 -81.7 25.7 -79.2C34 -76.7 41.7 -73.1 49.6 -68.3C57.5 -63.4 65.6 -57.4 67.6 -49.1C69.5 -40.8 65.3 -30.3 67 -21.8C68.8 -13.2 76.6 -6.6 84.4 0L0 0Z" fill="#7100c7"></path></g></svg>