<svg id="visual" viewBox="0 0 900 450" width="900" height="450" xmlns="http://www.w3.org/2000/svg" xmlns:xlink="http://www.w3.org/1999/xlink" version="1.1"><rect x="0" y="0" width="900" height="450" fill="#ffffff"></rect><defs><linearGradient id="grad1_0" x1="50%" y1="0%" x2="100%" y2="100%"><stop offset="10%" stop-color="#8519d5" stop-opacity="1"></stop><stop offset="90%" stop-color="#8519d5" stop-opacity="1"></stop></linearGradient></defs><defs><linearGradient id="grad1_1" x1="50%" y1="0%" x2="100%" y2="100%"><stop offset="10%" stop-color="#8519d5" stop-opacity="1"></stop><stop offset="90%" stop-color="#b571e5" stop-opacity="1"></stop></linearGradient></defs><defs><linearGradient id="grad1_2" x1="50%" y1="0%" x2="100%" y2="100%"><stop offset="10%" stop-color="#ddb8f3" stop-opacity="1"></stop><stop offset="90%" stop-color="#b571e5" stop-opacity="1"></stop></linearGradient></defs><defs><linearGradient id="grad1_3" x1="50%" y1="0%" x2="100%" y2="100%"><stop offset="10%" stop-color="#ddb8f3" stop-opacity="1"></stop><stop offset="90%" stop-color="#ffffff" stop-opacity="1"></stop></linearGradient></defs><defs><linearGradient id="grad2_0" x1="0%" y1="0%" x2="50%" y2="100%"><stop offset="10%" stop-color="#8519d5" stop-opacity="1"></stop><stop offset="90%" stop-color="#8519d5" stop-opacity="1"></stop></linearGradient></defs><defs><linearGradient id="grad2_1" x1="0%" y1="0%" x2="50%" y2="100%"><stop offset="10%" stop-color="#b571e5" stop-opacity="1"></stop><stop offset="90%" stop-color="#8519d5" stop-opacity="1"></stop></linearGradient></defs><defs><linearGradient id="grad2_2" x1="0%" y1="0%" x2="50%" y2="100%"><stop offset="10%" stop-color="#b571e5" stop-opacity="1"></stop><stop offset="90%" stop-color="#ddb8f3" stop-opacity="1"></stop></linearGradient></defs><defs><linearGradient id="grad2_3" x1="0%" y1="0%" x2="50%" y2="100%"><stop offset="10%" stop-color="#ffffff" stop-opacity="1"></stop><stop offset="90%" stop-color="#ddb8f3" stop-opacity="1"></stop></linearGradient></defs><g transform="translate(900, 0)"><path d="M0 337.5C-38.6 339 -77.3 340.4 -104.3 321C-131.3 301.6 -146.6 261.3 -172.2 237C-197.8 212.8 -233.7 204.7 -250.8 182.2C-267.9 159.8 -266.4 123 -277.7 90.2C-289 57.5 -313.3 28.7 -337.5 0L0 0Z" fill="#eedbf9"></path><path d="M0 253.1C-29 254.2 -58 255.3 -78.2 240.7C-98.5 226.2 -110 195.9 -129.2 177.8C-148.4 159.6 -175.2 153.5 -188.1 136.7C-201 119.8 -199.8 92.2 -208.3 67.7C-216.8 43.1 -235 21.6 -253.1 0L0 0Z" fill="#c994ec"></path><path d="M0 168.8C-19.3 169.5 -38.6 170.2 -52.1 160.5C-65.6 150.8 -73.3 130.6 -86.1 118.5C-98.9 106.4 -116.8 102.3 -125.4 91.1C-134 79.9 -133.2 61.5 -138.9 45.1C-144.5 28.7 -156.6 14.4 -168.7 0L0 0Z" fill="#9e4bdd"></path><path d="M0 84.4C-9.7 84.7 -19.3 85.1 -26.1 80.2C-32.8 75.4 -36.7 65.3 -43.1 59.3C-49.5 53.2 -58.4 51.2 -62.7 45.6C-67 39.9 -66.6 30.7 -69.4 22.6C-72.3 14.4 -78.3 7.2 -84.4 0L0 0Z" fill="#8519d5"></path></g><g transform="translate(0, 450)"><path d="M0 -337.5C22.3 -295.2 44.6 -252.9 81 -249.2C117.3 -245.5 167.8 -280.3 198.4 -273C228.9 -265.8 239.5 -216.3 245.9 -178.7C252.4 -141.1 254.6 -115.3 269.1 -87.5C283.7 -59.6 310.6 -29.8 337.5 0L0 0Z" fill="#eedbf9"></path><path d="M0 -253.1C16.7 -221.4 33.4 -189.7 60.7 -186.9C88 -184.1 125.9 -210.2 148.8 -204.8C171.7 -199.3 179.6 -162.2 184.5 -134C189.3 -105.8 190.9 -86.4 201.9 -65.6C212.8 -44.7 233 -22.4 253.1 0L0 0Z" fill="#c994ec"></path><path d="M0 -168.7C11.1 -147.6 22.3 -126.4 40.5 -124.6C58.7 -122.7 83.9 -140.2 99.2 -136.5C114.5 -132.9 119.8 -108.2 123 -89.3C126.2 -70.5 127.3 -57.6 134.6 -43.7C141.9 -29.8 155.3 -14.9 168.8 0L0 0Z" fill="#9e4bdd"></path><path d="M0 -84.4C5.6 -73.8 11.1 -63.2 20.2 -62.3C29.3 -61.4 42 -70.1 49.6 -68.3C57.2 -66.4 59.9 -54.1 61.5 -44.7C63.1 -35.3 63.6 -28.8 67.3 -21.9C70.9 -14.9 77.7 -7.5 84.4 0L0 0Z" fill="#8519d5"></path></g></svg>